<svg data-v-fde0c5aa="" xmlns="http://www.w3.org/2000/svg" viewBox="0 0 300 300" class="iconLeft"><!----><defs data-v-fde0c5aa=""><!----></defs><rect data-v-fde0c5aa="" fill="transparent" x="0" y="0" width="300px" height="300px" class="logo-background-square"></rect><defs data-v-fde0c5aa=""><!----></defs><g data-v-fde0c5aa="" id="48c6001c-412f-4e32-9074-0173b63a3738" fill="#000000" transform="matrix(4.489015222600228,0,0,4.489015222600228,139.3801577365327,101.60841709906592)"><path d="M3.86 14.52C5.68 14.52 6.85 13.62 6.85 11.86C6.85 10.71 6.37 9.66 4.37 9.28L3.39 9.10C2.17 8.88 1.12 8.40 1.12 6.87C1.12 5.40 2.11 4.69 3.77 4.69C5.03 4.69 5.87 5.11 6.43 5.92L6.68 5.74C6.15 4.96 5.24 4.41 3.79 4.41C1.99 4.41 0.81 5.21 0.81 6.87C0.81 8.02 1.34 9.03 3.30 9.39L4.28 9.58C5.46 9.80 6.54 10.25 6.54 11.89C6.54 13.43 5.56 14.24 3.86 14.24C2.37 14.24 1.53 13.64 0.84 12.74L0.59 12.92C1.29 13.85 2.24 14.52 3.86 14.52ZM9.13 17.15L9.42 17.15L9.42 13.26L9.46 13.26C9.76 13.87 10.51 14.52 11.76 14.52C13.62 14.52 14.73 13.27 14.73 10.81C14.73 8.34 13.62 7.10 11.76 7.10C10.51 7.10 9.76 7.74 9.46 8.36L9.42 8.36L9.42 7.27L9.13 7.27ZM11.76 14.25C10.53 14.25 9.42 13.48 9.42 12.35L9.42 9.27C9.42 8.13 10.53 7.36 11.76 7.36C13.45 7.36 14.41 8.55 14.41 10.47L14.41 11.14C14.41 13.06 13.45 14.25 11.76 14.25ZM19.35 14.52C21.20 14.52 22.29 13.26 22.29 10.81C22.29 8.36 21.20 7.10 19.35 7.10C17.50 7.10 16.41 8.36 16.41 10.81C16.41 13.26 17.50 14.52 19.35 14.52ZM19.35 14.25C17.67 14.25 16.73 13.05 16.73 11.14L16.73 10.47C16.73 8.57 17.67 7.36 19.35 7.36C21.03 7.36 21.97 8.57 21.97 10.47L21.97 11.14C21.97 13.05 21.03 14.25 19.35 14.25ZM26.75 14.35L26.75 14.08L25.17 14.08L25.17 7.53L26.87 7.53L26.87 7.27L25.17 7.27L25.17 5.25L24.88 5.25L24.88 6.92C24.88 7.17 24.81 7.27 24.56 7.27L23.55 7.27L23.55 7.53L24.88 7.53L24.88 13.94C24.88 14.22 25.00 14.35 25.28 14.35Z"></path></g><defs data-v-fde0c5aa=""><linearGradient data-v-fde0c5aa="" gradientTransform="rotate(25)" id="90bcc113-6825-4ba4-8732-26be741f6ef5" x1="0%" y1="0%" x2="100%" y2="0%"><stop data-v-fde0c5aa="" offset="0%" stop-color="#0D2545" stop-opacity="1"></stop><stop data-v-fde0c5aa="" offset="100%" stop-color="#A21F44" stop-opacity="1"></stop></linearGradient></defs><g data-v-fde0c5aa="" id="69ee144e-fb5c-4b42-8017-ef6cf66eb134" stroke="none" fill="url(#90bcc113-6825-4ba4-8732-26be741f6ef5)" transform="matrix(0.9878749153032484,0,0,0.9878749153032484,35.12029401952327,98.9831770378021)"><path d="M83.061 56l-2.895-9.673C78.098 40.536 71.661 36 65.512 36H34.758c-6.15 0-12.587 4.536-14.72 10.531L17.061 56c-6.551 0-12 5.146-12 11.698V75c0 6.551 5.449 12 12 12h3v8.062h9V87h42v8.062h9V87h3c6.551 0 12-5.49 12-12.041V68c0-6.551-5.45-12-12-12zm-57.122-7.588C27.121 45.102 31.545 42 35.061 42h30c3.517 0 8.088 3.102 9.203 6.208L76.061 56h-52l1.878-7.588zM89.061 75c0 3.135-2.865 6-6 6h-66c-3.135 0-6-2.865-6-6v-7c0-3.135 2.865-6 6-6l66 .014c3.135 0 6 2.852 6 5.986v7z"></path><circle cx="24.561" cy="71.5" r="4.5"></circle><circle cx="75.561" cy="71.5" r="4.5"></circle><path d="M93.056 22.409L50.061 8.224 6.943 22.409a2.844 2.844 0 0 0-1.882 3.539l.098.316a2.842 2.842 0 0 0 3.539 1.882l41.363-13.648 41.241 13.648a2.842 2.842 0 0 0 3.539-1.882l.098-.316a2.844 2.844 0 0 0-1.883-3.539z"></path></g><!----></svg>